<svg xmlns="http://www.w3.org/2000/svg" viewBox="0 0 64 64">
  <defs>
    <linearGradient id="g" x1="0" y1="0" x2="0" y2="1">
      <stop offset="0" stop-color="#5E6B3C"/>
      <stop offset="1" stop-color="#3F4A26"/>
    </linearGradient>
  </defs>
  <path d="M32 2 L60 12 L60 32 Q60 50 32 62 Q4 50 4 32 L4 12 Z" fill="url(#g)"/>
  <path d="M32 6 L56 15 L56 32 Q56 47 32 58 Q8 47 8 32 L8 15 Z" fill="none" stroke="rgba(255,255,255,0.15)" stroke-width="1"/>
  <rect x="22" y="16" width="6" height="32" fill="rgba(255,255,255,0.96)" rx="1"/>
  <path d="M28 32 L42 16 L46 16 L32 32 Z" fill="rgba(255,255,255,0.96)"/>
  <path d="M28 32 L42 48 L46 48 L32 32 Z" fill="rgba(255,255,255,0.96)"/>
  <circle cx="32" cy="10" r="1.6" fill="rgba(255,255,255,0.7)"/>
</svg>
